<svg width="357" height="72" viewBox="0 0 119 24" fill="none" xmlns="http://www.w3.org/2000/svg">
    <g clip-path="url(#a)">
        <path d="m37.513 19.19-1.08-3.12h-5.02l-1.102 3.12h-3.027l5.49-14.38h2.346l5.42 14.38h-3.027ZM33.947 8.728l-1.713 4.786h3.379l-1.666-4.786ZM53.654 4.81h2.838v14.38h-1.97l-7.46-8.82v8.82h-2.84V4.81h1.83l7.602 8.89V4.81ZM64.422 7.601h-4.106V4.81H71.46v2.792h-4.105v11.613h-2.91V7.601h-.023ZM75.26 19.19V4.81h9.76v2.697h-6.85v3.097h6.358v2.698H78.17v3.238h6.85v2.698h-9.76v-.047ZM90.322 17.314c-1.43-1.431-2.135-3.167-2.135-5.255s.728-3.848 2.159-5.326C91.8 5.28 93.583 4.551 95.67 4.551c2.112 0 3.871.728 5.326 2.182 1.454 1.455 2.182 3.214 2.182 5.279 0 2.064-.728 3.824-2.182 5.255-1.431 1.43-3.214 2.158-5.326 2.158-2.135 0-3.941-.704-5.349-2.111Zm8.54-8.587c-.868-.868-1.924-1.314-3.19-1.314-1.267 0-2.323.446-3.191 1.314-.868.868-1.314 1.994-1.314 3.285 0 1.29.422 2.393 1.29 3.26.868.869 1.948 1.315 3.214 1.315 1.267 0 2.346-.423 3.214-1.314.868-.868 1.314-1.971 1.291-3.261 0-1.314-.446-2.417-1.314-3.285ZM115.777 4.81h2.839v14.38h-1.971l-7.461-8.82v8.82h-2.838V4.81h1.83l7.601 8.89V4.81ZM11.073 9.595H8.305l4.152 7.203 1.384-2.393-2.768-4.81ZM2.768 14.405 0 19.19h5.537l-2.769-4.786ZM4.152 11.988l4.153 7.203h2.768L5.537 9.595l-1.385 2.393ZM19.402 4.81h-5.56l5.56 9.595 2.768-4.81-2.768-4.786Z"
              fill="#1C252C"></path>
        <path d="M11.073 9.595 13.84 4.81 11.073 0H5.536L2.768 4.81l2.768 4.809m2.768-.024L6.92 7.202 8.304 4.81l2.769 4.81M13.842 14.405l2.768 4.786h-2.768l-1.385-2.393-1.384 2.393L13.842 24h5.56l2.768-4.81-2.768-4.786h-5.56Z"
              fill="#F6A61C"></path>
    </g>
    <defs>
        <clipPath id="a">
            <path fill="#fff" d="M0 0h118.616v24H0z"></path>
        </clipPath>
    </defs>
</svg>
