<svg viewBox="0 0 210 40" fill="none" xmlns="http://www.w3.org/2000/svg"><path d="M51.983 17.556c.789 0 1.524-.158 2.26-.473a4.807 4.807 0 0 0 1.787-1.472l2.155 2.208c-1.681 1.892-3.626 2.838-5.94 2.838a6.803 6.803 0 0 1-3.048-.526c-.946-.368-1.84-.946-2.628-1.63-.736-.682-1.314-1.576-1.682-2.47-.368-.946-.578-1.944-.525-2.943-.053-.999.157-2.05.525-2.996.368-.946.946-1.787 1.682-2.523a8.185 8.185 0 0 1 2.733-1.682 8.198 8.198 0 0 1 3.207-.473 8.209 8.209 0 0 1 3.154.788c.998.473 1.84 1.157 2.575 1.998l-2.05 2.365a4.508 4.508 0 0 0-1.735-1.42c-.683-.315-1.419-.525-2.207-.525-1.156 0-2.313.42-3.206 1.21-.473.42-.789.945-1.052 1.523a5.339 5.339 0 0 0-.315 1.788c-.053.63.053 1.209.263 1.787.21.578.525 1.104.998 1.524.842.683 1.945 1.104 3.05 1.104Zm8.726 2.89V5.625h3.31v11.88h6.361v2.943h-9.671Zm24.178-2.05c-1.524 1.42-3.469 2.208-5.571 2.208-2.103 0-4.048-.788-5.572-2.207a6.67 6.67 0 0 1-1.682-2.47 8.15 8.15 0 0 1-.578-2.944c-.053-.999.157-2.05.525-2.944a6.67 6.67 0 0 1 1.682-2.47c1.525-1.42 3.47-2.208 5.572-2.208s4.047.789 5.572 2.208a6.67 6.67 0 0 1 1.682 2.47c.368.947.578 1.945.525 2.944.053.999-.157 2.05-.525 2.943-.316.946-.894 1.787-1.63 2.47Zm-1.156-5.413c0-1.262-.473-2.47-1.314-3.417a5.53 5.53 0 0 0-1.42-1.05c-.525-.264-1.156-.369-1.734-.369-.578 0-1.156.105-1.735.368-.525.263-1.05.578-1.419 1.051a5.141 5.141 0 0 0-1.314 3.417c0 1.261.473 2.47 1.314 3.416.42.42.894.789 1.42 1.052.525.262 1.156.368 1.734.368.578 0 1.156-.105 1.735-.368.525-.263 1.05-.579 1.419-1.052.42-.473.788-.998.998-1.576.263-.631.368-1.21.316-1.84Zm10.144 3.68c.263.367.631.63.999.788.368.157.841.262 1.261.262.421 0 .841-.052 1.21-.262.367-.158.735-.473.946-.789a4.42 4.42 0 0 0 .788-2.786v-8.2h3.311v8.306c0 2.155-.578 3.784-1.787 4.94-.63.579-1.314 1.052-2.102 1.314-.789.316-1.63.421-2.47.421-.842 0-1.683-.105-2.471-.42-.788-.316-1.524-.736-2.103-1.315-1.208-1.156-1.787-2.785-1.787-4.94V5.677h3.312v8.2c0 .998.315 1.997.893 2.785Zm23.391-9.094c1.419 1.314 2.155 3.101 2.155 5.414 0 2.313-.684 4.152-2.05 5.519-1.367 1.367-3.522 1.997-6.308 1.997h-5.151V5.624h5.256c2.629 0 4.678.63 6.098 1.945Zm-2.418 8.83c.788-.735 1.209-1.892 1.209-3.364 0-1.471-.421-2.575-1.209-3.364-.789-.788-2.05-1.208-3.732-1.208h-1.84v9.04h2.103c1.261.105 2.523-.263 3.469-1.104Zm23.443-10.775h3.311V20.5h-3.311l-7.096-9.303v9.303h-3.312V5.624h3.101l7.307 9.567V5.623Zm17.555 14.823-1.419-3.207h-6.255l-1.419 3.207h-3.574l6.413-14.875h3.206l6.465 14.875h-3.417Zm-4.467-10.408-1.84 4.31h3.679l-1.839-4.31Zm14.98-1.524V20.5h-3.311V8.515h-4.205V5.677h11.773v2.838h-4.257Zm6.57-2.89h3.312v14.874h-3.312V5.624Zm12.51 9.46 3.785-9.46h3.626l-5.939 14.874h-2.786l-5.94-14.875h3.627l3.627 9.461Zm19.816-9.46v2.943h-7.411v3.048h6.675v2.839h-6.675v3.1h7.674V20.5h-10.933V5.677l10.67-.053ZM48.146 33.114c.42 0 .841-.106 1.262-.264.367-.21.735-.473.998-.84l1.21 1.261c-.421.473-.894.894-1.525 1.156a4.48 4.48 0 0 1-1.84.42c-.578 0-1.156-.052-1.682-.262a4.41 4.41 0 0 1-1.472-.946 3.556 3.556 0 0 1-.946-1.367 4.554 4.554 0 0 1-.315-1.682c0-.578.105-1.156.315-1.682.21-.525.526-.998.946-1.419a4.2 4.2 0 0 1 1.42-.946 4.552 4.552 0 0 1 1.682-.315c.63 0 1.314.105 1.892.367.578.263 1.104.684 1.577 1.157l-1.157 1.314a2.879 2.879 0 0 0-.946-.841c-.368-.21-.788-.263-1.261-.263-.684 0-1.314.263-1.787.683-.263.21-.473.526-.579.841-.105.316-.21.684-.157 1 0 .315.052.683.157.998.106.315.316.63.526.84.21.211.473.421.788.526.316.106.579.263.894.263Zm11.721.472c-.84.789-1.944 1.262-3.1 1.262a4.554 4.554 0 0 1-1.683-.316 4.202 4.202 0 0 1-1.419-.946 4.337 4.337 0 0 1-1.261-3.048c0-1.157.473-2.26 1.261-3.049.841-.788 1.945-1.261 3.101-1.261.578 0 1.157.105 1.682.315a4.2 4.2 0 0 1 1.42.946 4.337 4.337 0 0 1 1.261 3.049c0 1.156-.473 2.26-1.261 3.048Zm-.578-3.048c0-.684-.21-1.367-.683-1.893-.21-.262-.473-.42-.788-.578a2.061 2.061 0 0 0-.947-.21c-.315 0-.683.053-.946.21a2.327 2.327 0 0 0-.788.631 1.93 1.93 0 0 0-.526.894 3.301 3.301 0 0 0-.157.998c0 .684.262 1.367.683 1.892.21.263.473.421.788.579.316.157.631.21.946.21.316 0 .684-.053.947-.21.315-.158.578-.368.788-.631.42-.473.683-1.156.683-1.892Zm10.88-1.052-2.26 4.573h-1.103l-2.26-4.573v5.257h-1.84v-8.305h2.523l2.155 4.573 2.155-4.573h2.523v8.357h-1.84l-.052-5.308Zm9.672-2.26c.316.263.578.631.736 1.052.158.42.21.84.158 1.261 0 1.051-.316 1.787-.894 2.26-.578.526-1.524.683-2.733.683h-1.104v2.313h-1.892V26.44h2.943c1.262 0 2.155.263 2.786.788Zm-1.366 3.26c.262-.316.368-.684.368-1.105 0-.21 0-.368-.106-.578-.105-.157-.21-.315-.368-.42a3.066 3.066 0 0 0-1.366-.316h-1.051v2.786h1.261c.21 0 .473 0 .683-.052.21-.106.42-.21.579-.316Zm5.94 2.102c.157.21.314.315.577.42.21.105.473.158.684.158.262 0 .473-.053.683-.158.21-.105.42-.263.578-.42a2.907 2.907 0 0 0 .473-1.577v-4.626h1.84v4.626c.052.525-.053.998-.21 1.524-.158.473-.42.946-.789 1.314-.683.63-1.63.946-2.575.946a3.72 3.72 0 0 1-2.523-.998 3.384 3.384 0 0 1-.789-1.315c-.157-.472-.263-.998-.21-1.524v-4.625h1.84v4.625a2.04 2.04 0 0 0 .42 1.63Zm10.249-4.52v6.675h-1.84v-6.676H90.46v-1.577h6.623v1.577h-2.418Zm3.732-1.63h1.839v8.357h-1.84V26.44Zm9.724 0h1.839v8.357h-1.839l-3.942-5.203v5.203h-1.84V26.44h1.734l4.1 5.361-.052-5.361Zm9.356 4.1h1.84v2.943a3.973 3.973 0 0 1-1.577 1.051 3.898 3.898 0 0 1-1.893.316c-1.156 0-2.26-.42-3.101-1.21a3.558 3.558 0 0 1-.946-1.366 4.557 4.557 0 0 1-.315-1.682c0-.578.105-1.156.315-1.682.21-.525.526-.998.946-1.419a4.21 4.21 0 0 1 1.419-.946 4.554 4.554 0 0 1 1.682-.315 4.51 4.51 0 0 1 3.102 1.209l-.946 1.419c-.263-.316-.631-.526-1.052-.631-.315-.105-.683-.21-.998-.21-.684 0-1.314.263-1.788.683-.262.263-.473.526-.578.894-.105.367-.21.683-.157 1.05 0 .684.21 1.367.683 1.893.21.21.473.42.736.526.263.105.578.157.893.157.579.053 1.104-.105 1.577-.367v-2.366h.158v.053Zm12.352-4.1v1.63h-3.837v1.786h3.627v1.682h-3.627v3.26h-1.84v-8.358h5.677Zm8.62 7.148c-.841.789-1.945 1.262-3.101 1.262a4.556 4.556 0 0 1-1.682-.316 4.192 4.192 0 0 1-1.419-.946 4.335 4.335 0 0 1-1.262-3.048c0-1.157.473-2.26 1.262-3.049.841-.788 1.945-1.261 3.101-1.261.578 0 1.156.105 1.682.315.526.21.999.526 1.419.946a4.335 4.335 0 0 1 1.262 3.049c0 1.156-.473 2.26-1.262 3.048Zm-.683-3.048c0-.684-.21-1.367-.683-1.893-.211-.262-.473-.42-.789-.578a2.061 2.061 0 0 0-.946-.21c-.315 0-.683.053-.946.21a2.327 2.327 0 0 0-.788.631 1.927 1.927 0 0 0-.526.894 3.577 3.577 0 0 0-.158.998c0 .684.263 1.367.684 1.892.21.263.473.421.788.579.315.157.631.21.946.21.315 0 .683-.053.946-.21a2.33 2.33 0 0 0 .789-.631c.262-.263.42-.526.525-.894.105-.367.211-.63.158-.998Zm5.729 2.05c.158.21.316.315.578.42.211.105.474.158.684.158.21 0 .473-.053.683-.158.21-.105.421-.263.578-.42a2.902 2.902 0 0 0 .473-1.577v-4.626h1.84v4.626c.053.525-.053.998-.21 1.524a3.388 3.388 0 0 1-.789 1.314c-.683.63-1.629.946-2.575.946a3.72 3.72 0 0 1-2.523-.998 3.388 3.388 0 0 1-.789-1.315c-.157-.472-.262-.998-.21-1.524v-4.625h1.84v4.625c-.105.578.052 1.21.42 1.63Zm12.563-6.15h1.839v8.357h-1.839l-3.942-5.203v5.203h-1.84V26.44h1.734l4.1 5.361-.052-5.361Zm10.249 1.104c.421.368.736.893.946 1.419.211.526.316 1.104.263 1.63.053.578-.052 1.103-.263 1.629-.21.525-.525.998-.893 1.419-.736.736-1.945 1.156-3.574 1.156h-2.839V26.44h2.944c1.524 0 2.68.368 3.416 1.104Zm-1.366 4.993c.21-.263.42-.526.525-.84.105-.316.158-.684.158-1 0-.368-.053-.683-.158-.998-.105-.316-.315-.631-.525-.894a2.625 2.625 0 0 0-.999-.525c-.368-.106-.736-.158-1.104-.106h-1.051v5.046h1.209c.683-.052 1.419-.262 1.945-.683Zm9.881 2.208-.735-1.787h-3.522l-.736 1.787h-1.997l3.626-8.358h1.788l3.626 8.358h-2.05Zm-2.523-5.835-1.051 2.418h2.103l-1.052-2.418Zm8.41-.84v6.675h-1.839v-6.676h-2.418v-1.577h6.623v1.577h-2.366Zm3.68-1.63h1.84v8.357h-1.84V26.44Zm10.933 7.148c-.841.789-1.945 1.262-3.101 1.262a4.548 4.548 0 0 1-1.682-.316 4.206 4.206 0 0 1-1.42-.946 4.338 4.338 0 0 1-1.261-3.048c0-1.157.473-2.26 1.261-3.049.841-.788 1.945-1.261 3.102-1.261.578 0 1.156.105 1.682.315.525.21.998.526 1.419.946a4.339 4.339 0 0 1 1.261 3.049c0 1.156-.473 2.26-1.261 3.048Zm-.578-3.048c0-.684-.263-1.367-.684-1.893-.21-.262-.473-.42-.788-.578a2.061 2.061 0 0 0-.946-.21c-.316 0-.684.053-.946.21a2.321 2.321 0 0 0-.789.631c-.263.263-.42.526-.525.894a3.54 3.54 0 0 0-.158.998c0 .684.263 1.367.683 1.892.21.263.473.421.789.579.315.157.63.21.946.21.315 0 .683-.053.946-.21.315-.158.578-.368.788-.631.421-.473.684-1.156.684-1.892Zm9.251-4.1h1.839v8.357h-1.839l-3.943-5.203v5.203h-1.892V26.44h1.735l4.1 5.361c.052 0 0-5.361 0-5.361Z" fill="#000"/><path d="M8.514 24.862H3.941v10.67h10.67V30.96H8.515v-6.098ZM31.433 24.915v6.044h-6.097v4.573h10.67v-10.67l-4.573.053ZM3.941 14.244h4.626l-.053-.052V8.147h6.098V3.574H3.942v10.67ZM25.336 3.574v4.573h6.097v6.097h4.573V3.574h-10.67Z" fill="#0086FF"/><path d="m24.705 14.244-6.097-6.097h6.675V3.574h-10.67v4.573l6.098 6.097h3.994ZM19.239 24.862h-3.995l5.046 5.046.999 1.051h-6.676v4.573h10.723v-4.625l-3.049-2.996-3.048-3.049ZM31.433 14.244v6.623l-1.051-1.051-5.046-5.046v4.047l2.996 2.996 3.049 3.049h4.625V14.244h-4.573ZM14.612 20.289l-6.045-6.045H3.94v10.618h4.573v-6.623l6.098 6.097V20.29Z" fill="#93EAFF"/></svg>