<svg xmlns="http://www.w3.org/2000/svg" xmlns:xlink="http://www.w3.org/1999/xlink" width="226" height="66" viewBox="0 0 113 33">
    <defs>
        <path id="a" d="M.167.148H22.85v30.89H.167z"/>
    </defs>
    <g fill="none" fill-rule="evenodd">
        <path fill="#818285" d="M106.457.661v18.601L94.407.661H89.11v30.38h5.938V12.391l12.049 18.648h5.298V.661z"/>
        <g transform="translate(63.216 .003)">
            <mask id="b" fill="#fff">
                <use xlink:href="#a"/>
            </mask>
            <path fill="#818285" d="M22.851 18.32v-4.436H11.36v4.944h5.594v1.157c0 .83-.112 1.588-.35 2.266a5.042 5.042 0 0 1-1.015 1.786 5.047 5.047 0 0 1-1.857 1.285c-.707.278-1.496.424-2.372.424-.812 0-1.537-.13-2.172-.396a4.058 4.058 0 0 1-1.63-1.186 5.27 5.27 0 0 1-.613-.86 5.04 5.04 0 0 1-.416-1.044 9.462 9.462 0 0 1-.26-1.48c-.057-.58-.1-1.297-.13-2.14-.02-.845-.032-1.862-.032-3.048 0-1.196.011-2.22.041-3.064.031-.845.08-1.56.148-2.135.064-.575.157-1.06.274-1.46.112-.39.248-.729.411-1.027.163-.294.358-.574.577-.849A4.603 4.603 0 0 1 9.215 5.85c.643-.278 1.356-.41 2.144-.41 1.473 0 2.661.368 3.567 1.113.907.741 1.54 1.851 1.898 3.32h5.986a12.95 12.95 0 0 0-1.16-3.753 10.673 10.673 0 0 0-2.272-3.09c-.95-.899-2.085-1.604-3.427-2.106C14.622.417 13.088.155 11.36.148c-3.25 0-5.982 1.11-8.204 3.328a9.278 9.278 0 0 0-1.604 2.119 8.506 8.506 0 0 0-.873 2.444c-.34 1.708-.511 4.22-.511 7.553 0 3.325.17 5.843.51 7.554.172.847.463 1.658.874 2.42.41.773.943 1.48 1.604 2.142 2.222 2.217 4.954 3.33 8.204 3.33 1.71.006 3.269-.27 4.694-.838 1.42-.563 2.72-1.436 3.893-2.623a9.645 9.645 0 0 0 1.69-2.406c.426-.865.732-1.853.931-2.968.194-1.12.284-2.409.284-3.882" mask="url(#b)"/>
        </g>
        <path fill="#818285" d="M60.339 31.04V.66h-5.94v18.602L42.351.661h-5.299v30.38h5.944V12.391L55.041 31.04z"/>
        <g fill="#007335">
            <path d="M17.388 30.166c.548-1.517 1.112-3.03 1.694-4.546a724.537 724.537 0 0 1 1.745-4.5c.58-1.484 1.139-3.009 1.667-4.574a112.556 112.556 0 0 1 1.675-4.569c.354-.875.7-1.733 1.041-2.586.337-.858.637-1.701.897-2.537.096-.235.183-.546.266-.948.079-.402-.057-.717-.41-.942-.293-.165-.64-.172-1.044-.027-.405.145-.75.27-1.04.367-.714.258-1.405.513-2.084.771-.677.26-1.373.515-2.082.779-1.712.672-3.424 1.32-5.134 1.935-1.715.608-3.441 1.237-5.186 1.88a161.97 161.97 0 0 1-7.17 2.715c-.226.093-.446.182-.654.26-.209.082-.432.173-.654.269-.223.098-.477.18-.751.265L0 14.227v14.97c0 1.09.897 1.986 1.992 1.986h15.012c.145-.354.271-.692.384-1.017M3.19 8.64a405.229 405.229 0 0 1 7.874-2.972 400.68 400.68 0 0 0 7.876-2.982c.773-.318 1.531-.609 2.271-.868a43.162 43.162 0 0 0 2.28-.868l.963-.348H1.991A1.998 1.998 0 0 0 0 2.589v7.262c1.094-.4 2.157-.802 3.19-1.211M30.585 6.779a127.83 127.83 0 0 0-.895 2.392 863.826 863.826 0 0 0-3.63 9.727 672.372 672.372 0 0 1-3.681 9.768 69.823 69.823 0 0 0-.96 2.517h7.218a1.994 1.994 0 0 0 1.99-1.986V6.679l-.042.1z"/>
        </g>
    </g>
</svg>
