<svg xmlns="http://www.w3.org/2000/svg" xmlns:xlink="http://www.w3.org/1999/xlink" width="452" height="168" viewBox="0 0 113 42">
    <defs>
        <path id="a" d="M0 .177h112.812v41.78H0z"></path>
    </defs>
    <g fill="none" fill-rule="evenodd">
        <g transform="translate(0 .023)">
            <mask id="b" fill="#fff">
                <use xlink:href="#a"></use>
            </mask>
            <path fill="#FC521D"
                  d="M92.008 41.957H0l6.488-30.43C7.937 4.734 13.768.178 21.016.178h91.796l-6.256 30.33c-1.412 6.847-7.261 11.45-14.548 11.45"
                  mask="url(#b)"></path>
        </g>
        <path fill="#FFF"
              d="M27.17 31.603c-2.766 0-4.932-.736-6.765-2.242-.3-.234-.3-.535-.1-.803l1.9-2.61c.233-.302.5-.335.8-.134 1.299.97 2.765 1.439 4.331 1.439 1.6 0 2.4-.502 2.566-1.272.233-1.037-.933-1.305-2.266-1.606-3.265-.67-5.865-2.644-5.131-6.258.7-3.38 3.498-4.82 7.53-4.82 2.3 0 4.066.503 5.865 1.54.333.201.367.502.133.803l-1.966 2.644c-.2.301-.466.335-.8.167-1.032-.602-2.299-.903-3.698-.903-1.233 0-2 .268-2.133 1.104-.2 1.004.867 1.305 2.466 1.673 2.566.57 5.765 2.176 5.065 6.091-.666 3.547-3.632 5.187-7.797 5.187M53.694 13.766c.4 0 .566.235.5.603l-2.7 15.293c-.066.301-.233.502-.5.603-2.065.836-4.598 1.305-6.697 1.305-4.965 0-7.23-3.18-6.398-7.898l1.666-9.404c.067-.334.267-.502.6-.502h3.865c.367 0 .567.235.5.603l-1.666 9.805c-.366 2.075.367 3.045 2.033 3.045.8 0 1.6-.167 2.066-.368l2.232-12.583c.034-.334.267-.502.6-.502h3.899zM65.39 11.223c-1.4 0-2.2.77-2.5 2.343l-.1.669h2.933c.366 0 .566.234.533.636l-.533 3.079c-.067.334-.267.535-.633.535h-3.066l-2.166 12.148c-.034.334-.233.535-.6.535h-3.865c-.4 0-.6-.268-.534-.636l3.1-17.435c.732-4.15 3.232-6.291 7.364-6.291.766 0 1.533.033 2.099.134.367.067.533.3.467.702l-.567 3.18c-.033.401-.233.535-.533.501-.4-.067-.966-.1-1.4-.1M71.454 31.603c-3.6 0-5.465-2.844-4.732-7.195l2.932-16.632c.067-.335.267-.535.6-.535h3.865c.367 0 .567.267.5.636l-2.932 16.799c-.3 1.606.1 2.51 1.3 2.51h.666c.4-.034.6.134.533.535l-.533 3.18c-.067.334-.2.501-.433.535-.467.1-1.067.167-1.766.167M87.048 20.058c.233-1.339-.333-2.51-2.033-2.51-1.432 0-2.532.87-2.832 2.443l-.167.903h4.865l.167-.836zm-1.6-6.76c4.266 0 7.298 2.275 6.398 7.195l-.566 3.246c-.067.335-.267.502-.6.502h-9.264l-.1.468c-.333 1.774.467 2.644 2.3 2.644 1.466 0 2.999-.535 4.332-1.338.333-.235.6-.201.766.167l1.366 2.577c.134.334.1.635-.2.803-1.8 1.238-4.065 2.041-6.964 2.041-4.365 0-7.398-2.677-6.631-7.027l.866-4.853c.8-4.384 4.265-6.425 8.297-6.425z"></path>
    </g>
</svg>
